<?xml version="1.0" standalone="no"?><!DOCTYPE svg PUBLIC "-//W3C//DTD SVG 1.1//EN" "http://www.w3.org/Graphics/SVG/1.1/DTD/svg11.dtd"><svg t="1663572027073" class="icon" viewBox="0 0 1024 1024" version="1.1" xmlns="http://www.w3.org/2000/svg" p-id="2367" xmlns:xlink="http://www.w3.org/1999/xlink" width="200" height="200"><path d="M125.860571 906.496h772.278858c82.724571 0 123.867429-40.704 123.867428-122.148571V239.670857c0-81.444571-41.142857-122.148571-123.867428-122.148571H125.860571c-81.865143 0-123.867429 40.704-123.867428 122.148571v544.694857c0 81.444571 41.581714 122.148571 123.867428 122.148572z m0.859429-68.992c-36.004571 0-55.716571-18.870857-55.716571-56.576V243.072c0-37.723429 20.132571-56.576 55.716571-56.576h770.56c36.022857 0 55.716571 18.852571 55.716571 56.576v537.856c0 37.723429-19.712 56.576-55.716571 56.576z m1.718857-551.570286c0 9.417143 7.277714 17.133714 18.834286 17.133715h39.862857c10.715429 0 18.011429-7.716571 18.011429-17.133715v-36.004571c0-11.574857-7.296-18.852571-18.011429-18.852572h-39.862857c-11.995429 0-18.834286 7.277714-18.834286 18.852572z m690.834286 0c0 9.417143 6.875429 17.133714 18.432 17.133715h39.862857c10.715429 0 18.011429-7.716571 18.011429-17.133715v-36.004571c0-11.574857-7.296-18.852571-18.011429-18.852572h-39.862857c-11.995429 0-18.432 7.277714-18.432 18.852572z m-551.990857 173.568c0 12.854857 8.137143 20.571429 21.010285 20.571429h447.853715c12.854857 0 20.571429-7.716571 20.571428-20.571429v-205.714285c0-12.854857-7.716571-20.571429-20.571428-20.571429H288.292571c-12.873143 0-21.010286 7.716571-21.010285 20.571429z m-138.861715-51.437714c0 9.874286 7.296 17.572571 18.870858 17.572571h39.862857c10.697143 0 17.993143-7.716571 17.993143-17.554285v-36.022857c0-11.136-7.296-18.413714-18.011429-18.413715h-39.862857c-11.995429 0-18.834286 7.277714-18.834286 18.432z m690.870858 0c0 9.874286 6.857143 17.572571 18.432 17.572571h39.862857c10.697143 0 17.993143-7.716571 17.993143-17.554285v-36.022857c0-11.136-7.296-18.413714-18.011429-18.413715h-39.862857c-11.995429 0-18.432 7.277714-18.432 18.432zM128.420571 530.651429c0 9.417143 7.296 17.133714 18.870858 17.133714h39.862857c10.697143 0 17.993143-7.716571 17.993143-17.133714v-36.443429c0-11.136-7.296-18.413714-18.011429-18.413714h-39.862857c-11.995429 0-18.834286 7.277714-18.834286 18.413714z m690.852572 0c0 9.417143 6.875429 17.133714 18.432 17.133714h39.862857c10.715429 0 18.011429-7.716571 18.011429-17.133714v-36.443429c0-11.136-7.296-18.413714-18.011429-18.413714h-39.862857c-11.995429 0-18.432 7.277714-18.432 18.413714zM267.282286 769.792c0 13.275429 8.137143 20.571429 21.010285 20.571429h447.853715c12.854857 0 20.571429-7.296 20.571428-20.571429v-204.434286c0-12.854857-7.716571-20.150857-20.571428-20.150857H288.292571c-12.873143 0-21.010286 7.296-21.010285 20.150857z m-138.861715-117.010286c0 9.435429 7.296 17.572571 18.870858 17.572572h39.862857a17.481143 17.481143 0 0 0 17.993143-17.554286v-36.022857c0-11.556571-7.296-18.834286-18.011429-18.834286h-39.862857c-11.995429 0-18.834286 7.277714-18.834286 18.834286z m690.870858 0c0 9.435429 6.857143 17.572571 18.432 17.572572h39.862857a17.481143 17.481143 0 0 0 17.993143-17.554286v-36.022857c0-11.556571-7.296-18.834286-18.011429-18.834286h-39.862857c-11.995429 0-18.432 7.277714-18.432 18.834286zM128.420571 774.948571c0 9.856 7.296 17.554286 18.870858 17.554286h39.862857c10.697143 0 17.993143-7.698286 17.993143-17.554286v-36.425142c0-10.715429-7.296-18.011429-18.011429-18.011429h-39.862857c-11.995429 0-18.834286 7.296-18.834286 18.011429z m690.852572 0c0 9.856 6.875429 17.554286 18.432 17.554286h39.862857c10.715429 0 18.011429-7.698286 18.011429-17.554286v-36.425142c0-10.715429-7.296-18.011429-18.011429-18.011429h-39.862857c-11.995429 0-18.432 7.296-18.432 18.011429z" p-id="2368"></path></svg>